#!OML:ASF F:\VICON\USERDATA\INSTALL\rory3\rory3.ASF
:FULLY-SPECIFIED
:DEGREES
301
root 5.09904 18.1125 25.8375 -2.33703 -3.11921 -5.88
lowerback 10.9052 0.786193 3.2085
upperback 0.863569 1.56813 2.44574
thorax -5.1997 0.725796 0.512475
lowerneck -16.3651 -2.21403 -1.41585
upperneck 17.7955 -2.75824 0.339298
head 8.24902 -1.36702 0.0209628
rclavicle 8.82107e-016 -3.15074e-014
rhumerus -29.8705 -16.7656 -80.2126
rradius 26.2599
rwrist 1.99865
rhand -16.4222 23.2225
rfingers 7.12502
rthumb 9.79286 -6.52978
lclavicle 8.82107e-016 -3.15074e-014
lhumerus -30.3866 -1.37716 85.8698
lradius 29.134
lwrist -0.773142
lhand -26.8518 20.9639
lfingers 7.12502
lthumb -0.276999 50.9434
rfemur -8.54312 6.08556 33.3042
rtibia 28.9766
rfoot -13.833 -5.28647
rtoes 10.59
lfemur -22.1666 2.65592 -13.2764
ltibia 66.5938
lfoot -5.85549 -7.49113
ltoes -11.3542
302
root 5.10392 18.1012 26.0089 -2.32116 -3.33294 -5.82193
lowerback 10.8629 0.909156 3.28769
upperback 0.929043 1.73018 2.34065
thorax -5.0993 0.804364 0.334849
lowerneck -16.2444 -2.22305 -1.43296
upperneck 17.616 -2.77678 0.388866
head 8.16853 -1.37242 0.0406584
rclavicle 7.69048e-015 2.98177e-014
rhumerus -29.3639 -16.1284 -80.5527
rradius 27.0406
rwrist 2.75962
rhand -16.0063 20.0825
rfingers 7.12502
rthumb 10.1941 -9.65052
lclavicle 7.69048e-015 2.98177e-014
lhumerus -30.4821 -1.55077 85.9858
lradius 29.0668
lwrist -1.02659
lhand -26.5636 21.0878
lfingers 7.12502
lthumb 0.00143372 51.0676
rfemur -7.93614 5.84847 33.249
rtibia 29.0043
rfoot -14.3823 -5.04761
rtoes 10.7755
lfemur -22.9356 2.75276 -13.3894
ltibia 65.711
lfoot -6.5445 -6.6843
ltoes -12.9956
303
root 5.10257 18.086 26.1702 -2.19281 -3.60797 -5.96995
lowerback 10.8904 1.04348 3.45948
upperback 0.911911 1.93071 2.33045
thorax -5.12344 0.898693 0.197283
lowerneck -16.2025 -2.2603 -1.6315
upperneck 17.4449 -2.80559 0.527641
head 8.10935 -1.38548 0.117551
rclavicle 7.89858e-015 -3.13086e-015
rhumerus -28.9208 -15.1807 -80.9577
rradius 27.3057
rwrist 1.78683
rhand -16.4278 20.0079
rfingers 7.12502
rthumb 9.78739 -9.74464
lclavicle 7.89858e-015 -3.13086e-015
lhumerus -30.65 -1.58519 86.1101
lradius 28.9897
lwrist -1.19194
lhand -26.4843 20.9948
lfingers 7.12502
lthumb 0.0779544 50.9746
rfemur -7.4702 6.07217 33.4877
rtibia 28.9828
rfoot -14.8606 -5.25837
rtoes 10.6827
lfemur -23.9535 2.86762 -13.2439
ltibia 64.712
lfoot -6.95151 -5.9214
ltoes -11.3855
304
root 5.10565 18.0758 26.338 -2.16935 -3.77859 -6.37982
lowerback 10.9536 1.07887 3.93315
upperback 0.93176 2.04119 2.39809
thorax -5.12207 0.943341 -0.0150204
lowerneck -16.3912 -2.2465 -1.78947
upperneck 17.6355 -2.76848 0.642167
head 8.21047 -1.36581 0.182779
rclavicle 1.45486e-014 -1.94809e-014
rhumerus -28.5498 -14.2403 -81.3008
rradius 27.6556
rwrist 1.37727
rhand -16.5924 19.8384
rfingers 7.12502
rthumb 9.62866 -9.92156
lclavicle 1.45486e-014 -1.94809e-014
lhumerus -30.9592 -1.41911 86.1764
lradius 29.0143
lwrist -1.13519
lhand -26.5844 20.8102
lfingers 7.12502
lthumb -0.0186469 50.79
rfemur -6.78859 6.1098 33.9795
rtibia 28.9128
rfoot -15.8025 -5.42059
rtoes 9.60757
lfemur -24.8677 2.89911 -12.8246
ltibia 63.5649
lfoot -7.09972 -5.18651
ltoes -8.77818
305
root 5.11488 18.0609 26.5005 -1.98192 -3.74421 -6.64542
lowerback 10.9163 1.07936 4.29429
upperback 0.919951 2.08673 2.45126
thorax -5.1019 0.958568 -0.167583
lowerneck -16.6297 -2.23598 -1.87778
upperneck 17.7509 -2.73903 0.697395
head 8.29339 -1.35101 0.216024
rclavicle -1.14922e-014 -9.54166e-015
rhumerus -28.0026 -13.6552 -81.4649
rradius 27.9275
rwrist 1.33057
rhand -16.6713 18.9351
rfingers 7.12502
rthumb 9.55246 -10.8284
lclavicle -1.14922e-014 -9.54166e-015
lhumerus -31.1296 -1.29703 86.3362
lradius 28.9584
lwrist -0.947675
lhand -26.5931 20.8723
lfingers 7.12502
lthumb -0.0271207 50.852
rfemur -6.33729 6.04807 34.2649
rtibia 28.8519
rfoot -16.2308 -5.5473
rtoes 9.65409
lfemur -25.787 2.85771 -12.6254
ltibia 62.3105
lfoot -7.47425 -4.1435
ltoes -7.24903
306
root 5.12181 18.0525 26.6627 -1.73764 -3.88187 -6.63471
lowerback 10.8996 1.17686 4.40495
upperback 0.837215 2.22804 2.3699
thorax -5.16757 1.02269 -0.335933
lowerneck -16.8406 -2.20306 -1.63194
upperneck 17.9378 -2.69279 0.403553
head 8.38523 -1.34204 0.0795422
rclavicle -2.48605e-014 2.00773e-014
rhumerus -27.5864 -13.4019 -81.5925
rradius 28.1736
rwrist 1.34386
rhand -16.4707 18.0348
rfingers 7.12502
rthumb 9.74604 -11.7197
lclavicle -2.48605e-014 2.00773e-014
lhumerus -31.2592 -1.13629 86.3546
lradius 28.8265
lwrist -0.913765
lhand -26.1078 21.9926
lfingers 7.12502
lthumb 0.441672 51.9719
rfemur -5.96047 6.13967 34.2594
rtibia 28.7786
rfoot -16.5655 -5.72332
rtoes 10.0431
lfemur -26.7661 2.82513 -12.7095
ltibia 60.8325
lfoot -7.72141 -3.29883
ltoes -5.66914
307
root 5.12667 18.0306 26.8349 -1.73201 -4.02941 -6.45444
lowerback 10.9834 1.24803 4.33397
upperback 0.78268 2.31357 2.22265
thorax -5.26516 1.06223 -0.465782
lowerneck -16.7707 -2.15533 -1.32548
upperneck 17.9559 -2.64201 0.0912578
head 8.36923 -1.32998 -0.0685893
rclavicle -1.13369e-015 3.80176e-015
rhumerus -27.386 -13.1386 -81.7442
rradius 28.5386
rwrist 1.38392
rhand -16.2396 17.2122
rfingers 7.12502
rthumb 9.96896 -12.5317
lclavicle -1.13369e-015 3.80176e-015
lhumerus -31.56 -1.08872 86.3398
lradius 28.7742
lwrist -0.705594
lhand -25.9067 22.8758
lfingers 7.12502
lthumb 0.635824 52.8546
rfemur -5.25354 6.14947 34.1128
rtibia 28.7422
rfoot -17.1825 -6.04471
rtoes 9.00778
lfemur -27.1468 2.92438 -12.996
ltibia 59.2777
lfoot -8.12526 -2.23264
ltoes -6.47345
308
root 5.12932 18.0154 27.0025 -1.69767 -4.12211 -6.31074
lowerback 10.909 1.33825 4.23595
upperback 0.90484 2.40554 2.12559
thorax -5.09094 1.11346 -0.522364
lowerneck -16.9637 -2.15154 -1.2851
upperneck 17.8214 -2.64698 0.109181
head 8.35781 -1.32711 -0.071053
rclavicle -1.62844e-014 2.14066e-014
rhumerus -26.9653 -12.4841 -82.0129
rradius 29.1951
rwrist 0.76475
rhand -16.1128 15.8812
rfingers 7.12502
rthumb 10.0913 -13.8568
lclavicle -1.62844e-014 2.14066e-014
lhumerus -31.5694 -0.80086 86.3207
lradius 28.7265
lwrist -0.804363
lhand -26.0651 23.2329
lfingers 7.12502
lthumb 0.482859 53.2121
rfemur -4.58921 6.16963 33.9879
rtibia 28.6127
rfoot -17.8232 -6.30514
rtoes 8.62025
lfemur -27.6644 2.89875 -13.2293
ltibia 57.5156
lfoot -8.18675 -1.15681
ltoes -7.84723
309
root 5.13209 18.0095 27.161 -1.59071 -4.22394 -6.65578
lowerback 10.9979 1.38444 4.58067
upperback 0.959673 2.51716 2.23216
thorax -5.06917 1.16277 -0.621922
lowerneck -17.1656 -2.16831 -1.41784
upperneck 17.7927 -2.62673 0.0872944
head 8.38555 -1.3283 -0.056279
rclavicle -2.8472e-014 7.35503e-015
rhumerus -26.3449 -11.7396 -82.2186
rradius 29.5413
rwrist 0.0202672
rhand -16.6203 15.6305
rfingers 7.12502
rthumb 9.6017 -14.1307
lclavicle -2.8472e-014 7.35503e-015
lhumerus -31.7493 -1.20738 86.8562
lradius 28.584
lwrist 2.11035
lhand -28.6011 21.5537
lfingers 7.12502
lthumb -1.96646 51.5244
rfemur -4.02016 6.4007 34.4151
rtibia 28.425
rfoot -17.8137 -6.44591
rtoes 8.86537
lfemur -28.3625 2.80617 -12.846
ltibia 55.5971
lfoot -8.14258 -0.457975
ltoes -7.57738
310
root 5.1365 17.9974 27.3254 -1.42227 -4.45761 -7.27624
lowerback 11.1028 1.46199 5.25794
upperback 0.87049 2.72108 2.34914
thorax -5.18841 1.24508 -0.912352
lowerneck -17.3136 -2.19382 -1.41435
upperneck 18.0026 -2.64808 0.0252975
head 8.48208 -1.34419 -0.0834401
rclavicle -1.92852e-014 -2.62427e-014
rhumerus -25.8953 -11.4051 -82.3241
rradius 29.5546
rwrist -0.152085
rhand -16.8908 18.0355
rfingers 7.12502
rthumb 9.34075 -11.7375
lclavicle -1.92852e-014 -2.62427e-014
lhumerus -32.0744 -1.43652 87.0764
lradius 28.383
lwrist 3.7184
lhand -29.4061 19.3738
lfingers 7.12502
lthumb -2.74393 49.3359
rfemur -3.44071 6.58595 35.1217
rtibia 28.1788
rfoot -17.9773 -6.48692
rtoes 8.40536
lfemur -28.8482 2.79782 -12.1545
ltibia 53.5575
lfoot -8.26123 0.422445
ltoes -8.1793
311
root 5.14243 17.9864 27.4918 -1.21279 -4.5934 -7.32899
lowerback 11.0764 1.53166 5.35987
upperback 0.779094 2.82506 2.27687
thorax -5.2561 1.29012 -1.06074
lowerneck -17.46 -2.22769 -1.11599
upperneck 18.1751 -2.72657 -0.192403
head 8.55919 -1.38317 -0.21835
rclavicle -4.91324e-014 -3.9496e-014
rhumerus -25.6365 -11.0179 -82.4957
rradius 29.7954
rwrist -0.372294
rhand -17.0689 20.8062
rfingers 7.12502
rthumb 9.16885 -8.97449
lclavicle -4.91324e-014 -3.9496e-014
lhumerus -32.2484 -0.898155 86.7967
lradius 28.5481
lwrist 4.04892
lhand -27.4136 21.0151
lfingers 7.12502
lthumb -0.819543 50.9933
rfemur -2.9141 6.63524 35.1813
rtibia 27.88
rfoot -18.1944 -6.62535
rtoes 7.39836
lfemur -29.1931 2.62497 -12.1043
ltibia 51.3626
lfoot -8.26256 1.27689
ltoes -6.91504
312
root 5.14727 17.9739 27.6699 -1.06479 -4.70938 -7.01933
lowerback 10.8163 1.66281 5.11103
upperback 0.874082 2.93535 2.105
thorax -5.00711 1.35623 -1.10656
lowerneck -17.7121 -2.2724 -0.8583
upperneck 18.2135 -2.8098 -0.399831
head 8.61004 -1.42591 -0.34434
rclavicle -1.75707e-014 2.18663e-015
rhumerus -25.044 -10.6458 -82.6947
rradius 29.8656
rwrist -0.670791
rhand -17.9328 23.2051
rfingers 7.12502
rthumb 8.3352 -6.61044
lclavicle -1.75707e-014 2.18663e-015
lhumerus -32.225 0.419786 86.1369
lradius 29.0027
lwrist 2.07131
lhand -23.2339 27.4425
lfingers 7.12502
lthumb 3.21726 57.398
rfemur -2.28816 6.69075 34.8416
rtibia 27.57
rfoot -18.608 -6.85384
rtoes 6.92482
lfemur -29.4059 2.50525 -12.4524
ltibia 48.984
lfoot -8.31055 2.03238
ltoes -5.38718
313
root 5.15096 17.9604 27.8534 -0.992103 -4.84642 -6.97619
lowerback 10.6348 1.75335 5.088
upperback 0.981579 3.0326 2.07217
thorax -4.78663 1.4115 -1.13258
lowerneck -17.8796 -2.24494 -1.10636
upperneck 18.1935 -2.76184 -0.122266
head 8.64125 -1.39026 -0.205915
rclavicle -1.89187e-014 5.96354e-015
rhumerus -24.3408 -10.109 -82.8389
rradius 29.7735
rwrist -1.11862
rhand -18.6579 24.5249
rfingers 7.12502
rthumb 7.63538 -5.31725
lclavicle -1.89187e-014 5.96354e-015
lhumerus -32.3685 0.492546 86.3034
lradius 28.3925
lwrist 3.51394
lhand -26.2818 21.7435
lfingers 7.12502
lthumb 0.273577 51.7231
rfemur -1.56066 6.69765 34.8197
rtibia 27.307
rfoot -17.7828 -7.86816
rtoes 9.59053
lfemur -29.4139 2.33786 -12.4411
ltibia 46.4084
lfoot -8.23615 2.65083
ltoes -2.84092
314
root 5.15152 17.9439 28.029 -0.825844 -4.99194 -7.13605
lowerback 10.5839 1.85695 5.19638
upperback 0.861144 3.18785 2.11617
thorax -4.87336 1.48233 -1.16908
lowerneck -17.8404 -2.19303 -1.29626
upperneck 18.4489 -2.70597 0.178122
head 8.72861 -1.34445 -0.0675724
rclavicle 1.99064e-014 1.58531e-014
rhumerus -24.1846 -9.8975 -82.7558
rradius 29.886
rwrist -1.07004
rhand -18.5185 24.7938
rfingers 7.12502
rthumb 7.76992 -5.04343
lclavicle 1.99064e-014 1.58531e-014
lhumerus -32.6569 0.605787 86.4508
lradius 27.642
lwrist 4.77642
lhand -28.9489 17.3659
lfingers 7.12502
lthumb -2.30231 47.3333
rfemur -0.913995 6.91023 35.0568
rtibia 27.0089
rfoot -17.4689 -8.49447
rtoes 9.63982
lfemur -29.5522 1.94838 -12.1263
ltibia 43.6191
lfoot -7.90115 3.31996
ltoes -1.05618
